<mxfile host="app.diagrams.net" modified="2021-10-14T08:10:13.852Z" agent="5.0 (Macintosh; Intel Mac OS X 10_15_7) AppleWebKit/537.36 (KHTML, like Gecko) Chrome/92.0.4515.159 Safari/537.36" etag="JuElPZRcpxy6IZL3_qJK" version="15.5.1" type="github">
  <diagram id="Hil883hxXuPFeVVIUmoq" name="Page-1">
    <mxGraphModel dx="2066" dy="1044" grid="1" gridSize="10" guides="1" tooltips="1" connect="1" arrows="1" fold="1" page="1" pageScale="1" pageWidth="850" pageHeight="1100" math="0" shadow="0">
      <root>
        <mxCell id="0" />
        <mxCell id="1" parent="0" />
        <mxCell id="hu1-PhMx1EyiSFUdjg9D-17" style="edgeStyle=orthogonalEdgeStyle;rounded=0;orthogonalLoop=1;jettySize=auto;html=1;exitX=1;exitY=0.3333333333333333;exitDx=0;exitDy=0;exitPerimeter=0;" edge="1" parent="1" source="hu1-PhMx1EyiSFUdjg9D-1" target="hu1-PhMx1EyiSFUdjg9D-16">
          <mxGeometry relative="1" as="geometry">
            <mxPoint x="220" y="350" as="targetPoint" />
          </mxGeometry>
        </mxCell>
        <mxCell id="hu1-PhMx1EyiSFUdjg9D-1" value="Actor" style="shape=umlActor;verticalLabelPosition=bottom;verticalAlign=top;html=1;outlineConnect=0;" vertex="1" parent="1">
          <mxGeometry x="70" y="350" width="30" height="60" as="geometry" />
        </mxCell>
        <mxCell id="hu1-PhMx1EyiSFUdjg9D-19" style="edgeStyle=orthogonalEdgeStyle;rounded=0;orthogonalLoop=1;jettySize=auto;html=1;entryX=0;entryY=0.5;entryDx=0;entryDy=0;" edge="1" parent="1" source="hu1-PhMx1EyiSFUdjg9D-12" target="hu1-PhMx1EyiSFUdjg9D-13">
          <mxGeometry relative="1" as="geometry">
            <mxPoint x="570" y="380" as="targetPoint" />
          </mxGeometry>
        </mxCell>
        <mxCell id="hu1-PhMx1EyiSFUdjg9D-38" value="根据圈选规则生成SQL" style="edgeLabel;html=1;align=center;verticalAlign=middle;resizable=0;points=[];" vertex="1" connectable="0" parent="hu1-PhMx1EyiSFUdjg9D-19">
          <mxGeometry x="-0.1111" y="-2" relative="1" as="geometry">
            <mxPoint as="offset" />
          </mxGeometry>
        </mxCell>
        <mxCell id="hu1-PhMx1EyiSFUdjg9D-12" value="wkd" style="swimlane;" vertex="1" parent="1">
          <mxGeometry x="200" y="280" width="200" height="200" as="geometry" />
        </mxCell>
        <mxCell id="hu1-PhMx1EyiSFUdjg9D-16" value="人群圈选" style="rounded=1;whiteSpace=wrap;html=1;" vertex="1" parent="hu1-PhMx1EyiSFUdjg9D-12">
          <mxGeometry x="40" y="60" width="120" height="60" as="geometry" />
        </mxCell>
        <mxCell id="hu1-PhMx1EyiSFUdjg9D-26" style="edgeStyle=orthogonalEdgeStyle;rounded=0;orthogonalLoop=1;jettySize=auto;html=1;" edge="1" parent="1" source="hu1-PhMx1EyiSFUdjg9D-13">
          <mxGeometry relative="1" as="geometry">
            <mxPoint x="960" y="380" as="targetPoint" />
          </mxGeometry>
        </mxCell>
        <mxCell id="hu1-PhMx1EyiSFUdjg9D-37" value="每天定时调度&lt;br&gt;根据不同的business&lt;br&gt;生成不同的执行计划，&lt;br&gt;同一个business的&lt;br&gt;合并提交一次" style="edgeLabel;html=1;align=center;verticalAlign=middle;resizable=0;points=[];" vertex="1" connectable="0" parent="hu1-PhMx1EyiSFUdjg9D-26">
          <mxGeometry x="-0.2" y="-1" relative="1" as="geometry">
            <mxPoint as="offset" />
          </mxGeometry>
        </mxCell>
        <mxCell id="hu1-PhMx1EyiSFUdjg9D-34" style="edgeStyle=orthogonalEdgeStyle;curved=1;rounded=0;orthogonalLoop=1;jettySize=auto;html=1;exitX=0.5;exitY=1;exitDx=0;exitDy=0;entryX=0.5;entryY=0;entryDx=0;entryDy=0;entryPerimeter=0;" edge="1" parent="1" source="hu1-PhMx1EyiSFUdjg9D-13" target="hu1-PhMx1EyiSFUdjg9D-14">
          <mxGeometry relative="1" as="geometry" />
        </mxCell>
        <mxCell id="hu1-PhMx1EyiSFUdjg9D-35" value="提交任务后定时轮询数据库是否已经执行完成" style="edgeLabel;html=1;align=center;verticalAlign=middle;resizable=0;points=[];" vertex="1" connectable="0" parent="hu1-PhMx1EyiSFUdjg9D-34">
          <mxGeometry x="-0.2167" y="4" relative="1" as="geometry">
            <mxPoint as="offset" />
          </mxGeometry>
        </mxCell>
        <mxCell id="hu1-PhMx1EyiSFUdjg9D-13" value="调度" style="swimlane;" vertex="1" parent="1">
          <mxGeometry x="580" y="280" width="200" height="200" as="geometry" />
        </mxCell>
        <mxCell id="hu1-PhMx1EyiSFUdjg9D-20" value="business1" style="rounded=1;whiteSpace=wrap;html=1;" vertex="1" parent="hu1-PhMx1EyiSFUdjg9D-13">
          <mxGeometry x="50" y="40" width="80" height="40" as="geometry" />
        </mxCell>
        <mxCell id="hu1-PhMx1EyiSFUdjg9D-21" value="business2" style="rounded=1;whiteSpace=wrap;html=1;" vertex="1" parent="hu1-PhMx1EyiSFUdjg9D-13">
          <mxGeometry x="50" y="90" width="80" height="40" as="geometry" />
        </mxCell>
        <mxCell id="hu1-PhMx1EyiSFUdjg9D-25" value="business3" style="rounded=1;whiteSpace=wrap;html=1;" vertex="1" parent="hu1-PhMx1EyiSFUdjg9D-13">
          <mxGeometry x="50" y="140" width="80" height="40" as="geometry" />
        </mxCell>
        <mxCell id="hu1-PhMx1EyiSFUdjg9D-14" value="" style="shape=cylinder3;whiteSpace=wrap;html=1;boundedLbl=1;backgroundOutline=1;size=15;" vertex="1" parent="1">
          <mxGeometry x="850" y="640" width="60" height="80" as="geometry" />
        </mxCell>
        <mxCell id="hu1-PhMx1EyiSFUdjg9D-31" style="edgeStyle=orthogonalEdgeStyle;rounded=0;orthogonalLoop=1;jettySize=auto;html=1;entryX=0;entryY=0.5;entryDx=0;entryDy=0;" edge="1" parent="1" source="hu1-PhMx1EyiSFUdjg9D-15" target="hu1-PhMx1EyiSFUdjg9D-30">
          <mxGeometry relative="1" as="geometry" />
        </mxCell>
        <mxCell id="hu1-PhMx1EyiSFUdjg9D-43" value="导数据" style="edgeLabel;html=1;align=center;verticalAlign=middle;resizable=0;points=[];" vertex="1" connectable="0" parent="hu1-PhMx1EyiSFUdjg9D-31">
          <mxGeometry x="-0.0783" y="2" relative="1" as="geometry">
            <mxPoint as="offset" />
          </mxGeometry>
        </mxCell>
        <mxCell id="hu1-PhMx1EyiSFUdjg9D-32" style="edgeStyle=orthogonalEdgeStyle;rounded=0;orthogonalLoop=1;jettySize=auto;html=1;exitX=0.5;exitY=1;exitDx=0;exitDy=0;entryX=0.5;entryY=0;entryDx=0;entryDy=0;entryPerimeter=0;curved=1;" edge="1" parent="1" source="hu1-PhMx1EyiSFUdjg9D-15" target="hu1-PhMx1EyiSFUdjg9D-14">
          <mxGeometry relative="1" as="geometry" />
        </mxCell>
        <mxCell id="hu1-PhMx1EyiSFUdjg9D-33" value="执行完相关人群包圈选后写入记录到数据库" style="edgeLabel;html=1;align=center;verticalAlign=middle;resizable=0;points=[];" vertex="1" connectable="0" parent="hu1-PhMx1EyiSFUdjg9D-32">
          <mxGeometry x="-0.0765" y="1" relative="1" as="geometry">
            <mxPoint as="offset" />
          </mxGeometry>
        </mxCell>
        <mxCell id="hu1-PhMx1EyiSFUdjg9D-15" value="EMR" style="swimlane;" vertex="1" parent="1">
          <mxGeometry x="960" y="280" width="200" height="200" as="geometry" />
        </mxCell>
        <mxCell id="hu1-PhMx1EyiSFUdjg9D-27" value="机器扩容" style="whiteSpace=wrap;html=1;" vertex="1" parent="hu1-PhMx1EyiSFUdjg9D-15">
          <mxGeometry x="40" y="40" width="110" height="40" as="geometry" />
        </mxCell>
        <mxCell id="hu1-PhMx1EyiSFUdjg9D-28" value="执行SQL" style="whiteSpace=wrap;html=1;" vertex="1" parent="hu1-PhMx1EyiSFUdjg9D-15">
          <mxGeometry x="40" y="90" width="110" height="40" as="geometry" />
        </mxCell>
        <mxCell id="hu1-PhMx1EyiSFUdjg9D-29" value="机器缩容" style="whiteSpace=wrap;html=1;" vertex="1" parent="hu1-PhMx1EyiSFUdjg9D-15">
          <mxGeometry x="40" y="140" width="110" height="40" as="geometry" />
        </mxCell>
        <mxCell id="hu1-PhMx1EyiSFUdjg9D-30" value="dcache" style="swimlane;" vertex="1" parent="1">
          <mxGeometry x="1275" y="280" width="200" height="200" as="geometry" />
        </mxCell>
        <mxCell id="hu1-PhMx1EyiSFUdjg9D-39" value="" style="endArrow=none;dashed=1;html=1;dashPattern=1 3;strokeWidth=2;rounded=0;curved=1;" edge="1" parent="1">
          <mxGeometry width="50" height="50" relative="1" as="geometry">
            <mxPoint x="480" y="760" as="sourcePoint" />
            <mxPoint x="480" y="150" as="targetPoint" />
          </mxGeometry>
        </mxCell>
        <mxCell id="hu1-PhMx1EyiSFUdjg9D-41" value="" style="endArrow=none;dashed=1;html=1;dashPattern=1 3;strokeWidth=2;rounded=0;curved=1;" edge="1" parent="1">
          <mxGeometry width="50" height="50" relative="1" as="geometry">
            <mxPoint x="879.5" y="740" as="sourcePoint" />
            <mxPoint x="879.5" y="130" as="targetPoint" />
          </mxGeometry>
        </mxCell>
        <mxCell id="hu1-PhMx1EyiSFUdjg9D-42" value="" style="endArrow=none;dashed=1;html=1;dashPattern=1 3;strokeWidth=2;rounded=0;curved=1;" edge="1" parent="1">
          <mxGeometry width="50" height="50" relative="1" as="geometry">
            <mxPoint x="1220" y="750" as="sourcePoint" />
            <mxPoint x="1220" y="140" as="targetPoint" />
          </mxGeometry>
        </mxCell>
      </root>
    </mxGraphModel>
  </diagram>
</mxfile>
